<svg width="24" height="23" viewBox="0 0 24 23" fill="none" xmlns="http://www.w3.org/2000/svg">
<path d="M2.74425 15.1776C2.15944 15.3995 1.86026 16.0567 2.13856 16.6169C3.13128 18.615 4.68829 20.2892 6.62787 21.4246C8.89452 22.7515 11.5471 23.2625 14.1444 22.8726C16.7418 22.4828 19.1274 21.2156 20.9047 19.2818C22.682 17.348 23.7437 14.8641 23.9135 12.2432C24.0832 9.62222 23.3507 7.02213 21.8377 4.87526C20.3246 2.72839 18.1224 1.16411 15.597 0.442526C13.0716 -0.279056 10.3753 -0.114455 7.95645 0.908958C5.88663 1.78469 4.12669 3.24411 2.88455 5.09754C2.53632 5.61713 2.74824 6.30741 3.29954 6.60286V6.60286C3.85085 6.89831 4.53187 6.68584 4.89254 6.17481C5.88143 4.77369 7.24594 3.66905 8.83905 2.99501C10.7815 2.17317 12.9467 2.04099 14.9747 2.62045C17.0026 3.1999 18.7712 4.45608 19.9862 6.18009C21.2012 7.90411 21.7894 9.99207 21.6531 12.0968C21.5168 14.2015 20.6642 16.1962 19.237 17.7491C17.8098 19.302 15.894 20.3196 13.8082 20.6326C11.7224 20.9457 9.59236 20.5353 7.77215 19.4698C6.27928 18.5959 5.06865 17.3245 4.26873 15.8076C3.97698 15.2543 3.32905 14.9558 2.74425 15.1776V15.1776Z" fill="white"/>
<path d="M2.375 10.6C1.87794 10.6 1.475 11.0029 1.475 11.5C1.475 11.9971 1.87794 12.4 2.375 12.4V10.6ZM17.3864 12.1364C17.7379 11.7849 17.7379 11.2151 17.3864 10.8636L11.6588 5.13604C11.3074 4.78457 10.7375 4.78457 10.386 5.13604C10.0346 5.48751 10.0346 6.05736 10.386 6.40883L15.4772 11.5L10.386 16.5912C10.0346 16.9426 10.0346 17.5125 10.386 17.864C10.7375 18.2154 11.3074 18.2154 11.6588 17.864L17.3864 12.1364ZM2.375 12.4L16.75 12.4V10.6L2.375 10.6V12.4Z" fill="white"/>
</svg>
