<svg width="71" height="70" viewBox="0 0 71 70" fill="none" xmlns="http://www.w3.org/2000/svg">
<path d="M0.599609 30C0.599609 15.8579 0.599609 8.7868 4.99301 4.3934C9.38641 0 16.4575 0 30.5996 0H40.5996C54.7417 0 61.8128 0 66.2062 4.3934C70.5996 8.7868 70.5996 15.8579 70.5996 30V40C70.5996 54.1421 70.5996 61.2132 66.2062 65.6066C61.8128 70 54.7417 70 40.5996 70H30.5996C16.4575 70 9.38641 70 4.99301 65.6066C0.599609 61.2132 0.599609 54.1421 0.599609 40V30Z" fill="#CF51CE"/>
<path d="M14.7996 51.6H36.3996V54C36.3996 55.325 37.4746 56.4 38.7996 56.4H41.9996C42.6996 56.4 43.3621 56.0875 43.8121 55.5625C43.8246 55.5625 43.8371 55.5625 43.8496 55.55C44.4371 56.1 45.1996 56.4 45.9996 56.4H55.5996C56.9246 56.4 57.9996 55.325 57.9996 54C57.9996 53.5875 57.8871 53.175 57.6746 52.825C58.7621 52.15 59.1246 50.7375 58.4746 49.625C59.0746 49.25 59.4746 48.625 59.5746 47.925C59.6746 47.225 59.4496 46.5125 58.9746 46C59.6121 45.3 59.7746 44.2875 59.3871 43.425C58.9996 42.5625 58.1371 42 57.1871 42H54.7871V17.2C54.7871 15.4375 53.3496 14 51.5871 14H14.7996C13.0371 14 11.5996 15.4375 11.5996 17.2V48.4C11.5996 50.1625 13.0371 51.6 14.7996 51.6ZM41.9996 54.8H38.7996C38.3621 54.8 37.9996 54.4375 37.9996 54V46.8C37.9996 46.3625 38.3621 46 38.7996 46H41.9996C42.4371 46 42.7996 46.3625 42.7996 46.8V54C42.7996 54.4375 42.4371 54.8 41.9996 54.8ZM57.9996 44.4C57.9996 44.8375 57.6371 45.2 57.1996 45.2H54.7996C54.3621 45.2 53.9996 45.5625 53.9996 46C53.9996 46.4375 54.3621 46.8 54.7996 46.8H57.1996C57.6371 46.8 57.9996 47.1625 57.9996 47.6C57.9996 48.0375 57.6371 48.4 57.1996 48.4H54.7996C54.3621 48.4 53.9996 48.7625 53.9996 49.2C53.9996 49.6375 54.3621 50 54.7996 50H56.3996C56.8371 50 57.1996 50.3625 57.1996 50.8C57.1996 51.2375 56.8371 51.6 56.3996 51.6H54.7996C54.3621 51.6 53.9996 51.9625 53.9996 52.4C53.9996 52.8375 54.3621 53.2 54.7996 53.2H55.5996C56.0371 53.2 56.3996 53.5625 56.3996 54C56.3996 54.4375 56.0371 54.8 55.5996 54.8H45.9996C45.1121 54.8 44.3996 54.0875 44.3996 53.2V46.4625C45.3996 45.8375 46.1496 44.875 46.5246 43.7625C47.2371 41.625 47.5996 39.3875 47.5996 37.1375C47.5996 37.025 47.6746 36.9375 47.7746 36.9C48.0496 36.85 48.7621 36.725 49.4371 38.05C49.8121 38.8125 49.9996 39.65 49.9871 40.5125V42.8C49.9871 43.2375 50.3496 43.6 50.7871 43.6H57.1871C57.6371 43.6 57.9996 43.9625 57.9996 44.4ZM51.5996 42V40.5125C51.6121 39.4125 51.3621 38.3125 50.8746 37.325C50.0871 35.7875 48.8871 35.075 47.4996 35.325C46.6246 35.4875 45.9996 36.25 45.9996 37.1375C45.9996 39.2125 45.6621 41.2875 45.0121 43.2625C44.7621 44 44.2746 44.625 43.6246 45.0625C43.1871 44.65 42.5996 44.425 41.9996 44.4125H38.7996C37.4746 44.4125 36.3996 45.4875 36.3996 46.8125V50.0125H14.7996C13.9121 50.0125 13.1996 49.3 13.1996 48.4125V22H53.1996V42H51.5996ZM14.7996 15.6H51.5996C52.4871 15.6 53.1996 16.3125 53.1996 17.2V20.4H13.1996V17.2C13.1996 16.3125 13.9121 15.6 14.7996 15.6Z" fill="white"/>
<path fill-rule="evenodd" clip-rule="evenodd" d="M16.3988 17.999C16.3988 18.4365 16.0363 18.799 15.5988 18.799C15.1613 18.799 14.7988 18.4365 14.7988 17.999C14.7988 17.5615 15.1613 17.199 15.5988 17.199C16.0363 17.199 16.3988 17.5615 16.3988 17.999Z" fill="white"/>
<path fill-rule="evenodd" clip-rule="evenodd" d="M19.6001 17.999C19.6001 18.4365 19.2376 18.799 18.8001 18.799C18.3626 18.799 18.0001 18.4365 18.0001 17.999C18.0001 17.5615 18.3626 17.199 18.8001 17.199C19.2376 17.199 19.6001 17.5615 19.6001 17.999Z" fill="white"/>
<path fill-rule="evenodd" clip-rule="evenodd" d="M22.7991 17.999C22.7991 18.4365 22.4366 18.799 21.9991 18.799C21.5616 18.799 21.1991 18.4365 21.1991 17.999C21.1991 17.5615 21.5616 17.199 21.9991 17.199C22.4366 17.199 22.7991 17.5615 22.7991 17.999Z" fill="white"/>
<path d="M17.9996 38.8005H30.7996C32.1246 38.8005 33.1996 37.7255 33.1996 36.4005V26.8005C33.1996 25.4755 32.1246 24.4005 30.7996 24.4005H17.9996C16.6746 24.4005 15.5996 25.4755 15.5996 26.8005V36.4005C15.5996 37.7255 16.6746 38.8005 17.9996 38.8005ZM19.9621 37.2005L23.6621 31.3755L25.4371 33.6005L23.1621 37.2005H19.9621ZM30.7996 37.2005H25.0621L29.2746 30.5755L31.5996 33.488V36.413C31.5996 36.838 31.2371 37.2005 30.7996 37.2005ZM17.1996 26.8005C17.1996 26.363 17.5621 26.0005 17.9996 26.0005H30.7996C31.2371 26.0005 31.5996 26.363 31.5996 26.8005V30.9255L29.8246 28.7005C29.6621 28.5005 29.4121 28.388 29.1621 28.4005C28.8996 28.413 28.6746 28.5505 28.5246 28.7755L26.3621 32.1755L24.2246 29.5005C24.0621 29.3005 23.8121 29.188 23.5621 29.2005C23.2996 29.213 23.0746 29.3505 22.9246 29.5755L18.0746 37.2005H17.9996C17.5621 37.2005 17.1996 36.838 17.1996 36.4005V26.8005Z" fill="white"/>
<path fill-rule="evenodd" clip-rule="evenodd" d="M20.3988 28.3995C20.3988 28.837 20.0363 29.1995 19.5988 29.1995C19.1613 29.1995 18.7988 28.837 18.7988 28.3995C18.7988 27.962 19.1613 27.5995 19.5988 27.5995C20.0363 27.5995 20.3988 27.962 20.3988 28.3995Z" fill="white"/>
<path fill-rule="evenodd" clip-rule="evenodd" d="M49.9996 25.199H36.3996C35.9621 25.199 35.5996 25.5615 35.5996 25.999C35.5996 26.4365 35.9621 26.799 36.3996 26.799H49.9996C50.4371 26.799 50.7996 26.4365 50.7996 25.999C50.7996 25.5615 50.4371 25.199 49.9996 25.199Z" fill="white"/>
<path fill-rule="evenodd" clip-rule="evenodd" d="M49.9996 28.4005H36.3996C35.9621 28.4005 35.5996 28.763 35.5996 29.2005C35.5996 29.638 35.9621 30.0005 36.3996 30.0005H49.9996C50.4371 30.0005 50.7996 29.638 50.7996 29.2005C50.7996 28.763 50.4371 28.4005 49.9996 28.4005Z" fill="white"/>
<path fill-rule="evenodd" clip-rule="evenodd" d="M49.9996 31.5995H36.3996C35.9621 31.5995 35.5996 31.962 35.5996 32.3995C35.5996 32.837 35.9621 33.1995 36.3996 33.1995H49.9996C50.4371 33.1995 50.7996 32.837 50.7996 32.3995C50.7996 31.962 50.4371 31.5995 49.9996 31.5995Z" fill="white"/>
<path fill-rule="evenodd" clip-rule="evenodd" d="M43.5996 34.801H36.3996C35.9621 34.801 35.5996 35.1635 35.5996 35.601C35.5996 36.0385 35.9621 36.401 36.3996 36.401H43.5996C44.0371 36.401 44.3996 36.0385 44.3996 35.601C44.3996 35.1635 44.0371 34.801 43.5996 34.801Z" fill="white"/>
<path fill-rule="evenodd" clip-rule="evenodd" d="M34.7996 42H16.3996C15.9621 42 15.5996 42.3625 15.5996 42.8C15.5996 43.2375 15.9621 43.6 16.3996 43.6H34.7996C35.2371 43.6 35.5996 43.2375 35.5996 42.8C35.5996 42.3625 35.2371 42 34.7996 42Z" fill="white"/>
<path fill-rule="evenodd" clip-rule="evenodd" d="M32.3996 45.199H16.3996C15.9621 45.199 15.5996 45.5615 15.5996 45.999C15.5996 46.4365 15.9621 46.799 16.3996 46.799H32.3996C32.8371 46.799 33.1996 46.4365 33.1996 45.999C33.1996 45.5615 32.8371 45.199 32.3996 45.199Z" fill="white"/>
</svg>
