<svg width="48" height="48" viewBox="0 0 48 48" fill="none" xmlns="http://www.w3.org/2000/svg">
<path d="M0 43.575C0 36.9 0 30.3 0 23.625C0.3 22.65 1.05 22.125 1.875 21.675C2.175 21.525 2.475 21.375 2.775 21.3C3.15 21.225 3.225 21 3.225 20.7C3.225 15.975 3.225 11.325 3.225 6.6C3.225 3.225 5.625 0.75 8.85 0.75C19.95 0.75 31.125 0.75 42.225 0.75C43.8 0.75 44.775 1.725 44.775 3.375C44.775 5.55 44.775 7.725 44.775 9.9C44.775 10.05 44.775 10.275 44.775 10.425C47.025 11.175 48 12.45 48 14.775C48 22.5 48 30.3 48 38.025C48 38.475 48 38.925 47.85 39.375C47.4 41.175 45.825 42.375 43.8 42.375C37.125 42.375 30.525 42.375 23.85 42.375C23.625 42.375 23.475 42.375 23.25 42.375C23.25 42.45 23.25 42.45 23.25 42.45C23.25 42.525 23.25 42.6 23.25 42.675C23.325 43.8 22.8 44.625 21.825 45.15C21 45.6 20.1 45.975 19.275 46.2C16.875 46.875 14.325 47.1 11.85 47.1C8.925 47.1 6 46.875 3.15 45.9C1.8 45.525 0.525 45 0 43.575ZM46.425 22.35C46.425 22.125 46.425 21.975 46.425 21.825C46.425 19.425 46.425 17.025 46.425 14.625C46.425 12.9 45.45 11.925 43.725 11.925C32.175 11.925 20.55 11.925 9 11.925C7.5 11.925 6.15 11.475 5.025 10.5C4.95 10.425 4.875 10.425 4.8 10.35C4.8 13.8 4.8 17.175 4.8 20.55C4.95 20.55 5.1 20.55 5.25 20.475C9.225 19.65 13.2 19.65 17.25 20.325C18.825 20.55 20.4 21 21.825 21.825C22.725 22.5 23.25 23.25 23.25 24.45C23.175 29.7 23.25 34.875 23.25 40.125C23.25 40.35 23.25 40.5 23.25 40.725C23.4 40.725 23.55 40.725 23.7 40.725C30.45 40.725 37.125 40.725 43.875 40.725C45.45 40.725 46.5 39.75 46.5 38.1C46.5 35.7 46.5 33.225 46.5 30.825C46.5 30.675 46.5 30.525 46.5 30.375C45.225 30.375 43.95 30.375 42.75 30.375C42.15 30.375 41.55 30.3 40.95 30.075C39.225 29.4 38.25 27.45 38.625 25.65C39 23.775 40.575 22.425 42.45 22.425C43.65 22.35 45 22.35 46.425 22.35ZM43.2 7.125C42.975 7.125 42.75 7.125 42.525 7.125C30.9 7.125 19.2 7.125 7.575 7.125C6.75 7.125 6.375 6.825 6.375 6.3C6.375 5.775 6.75 5.475 7.575 5.475C19.2 5.475 30.9 5.475 42.525 5.475C42.75 5.475 42.9 5.475 43.2 5.475C43.2 4.725 43.2 4.05 43.2 3.45C43.2 2.55 42.975 2.325 42.075 2.325C31.05 2.325 20.1 2.325 9.075 2.325C8.7 2.325 8.325 2.325 8.025 2.4C6 2.85 4.65 4.725 4.8 6.6C5.025 8.7 6.675 10.275 8.775 10.275C20.1 10.275 31.425 10.275 42.825 10.275C42.975 10.275 43.05 10.275 43.2 10.2C43.2 9.3 43.2 8.25 43.2 7.125ZM11.625 21.525C9.375 21.525 7.125 21.675 4.95 22.275C3.975 22.575 3 22.95 2.1 23.4C1.425 23.775 1.425 24.15 2.1 24.525C2.625 24.825 3.15 25.05 3.675 25.275C5.4 25.875 7.125 26.1 8.925 26.25C12.075 26.475 15.225 26.4 18.375 25.65C19.275 25.425 20.175 25.05 21.075 24.6C21.825 24.225 21.825 23.775 21.075 23.325C20.625 23.025 20.1 22.8 19.575 22.65C16.95 21.75 14.325 21.6 11.625 21.525ZM1.575 26.175C1.575 26.85 1.65 27.525 1.575 28.2C1.5 28.8 1.8 29.25 2.325 29.475C3.45 29.85 4.5 30.375 5.7 30.6C8.85 31.275 12 31.275 15.225 30.975C17.025 30.825 18.75 30.45 20.475 29.775C21.3 29.4 21.825 28.95 21.675 27.9C21.6 27.375 21.675 26.775 21.675 26.25C15.15 28.575 7.875 28.575 1.575 26.175ZM1.575 35.775C1.575 36.525 1.65 37.2 1.575 37.875C1.575 38.475 1.8 38.85 2.25 39C3.075 39.375 3.9 39.75 4.8 39.975C9 41.025 13.275 40.95 17.55 40.2C18.75 39.975 19.95 39.675 21 39C21.225 38.85 21.6 38.625 21.6 38.325C21.675 37.5 21.6 36.6 21.6 35.7C18.375 37.2 15 37.5 11.625 37.5C8.175 37.575 4.8 37.275 1.575 35.775ZM1.575 40.575C1.575 41.325 1.575 42 1.575 42.75C1.575 43.275 1.725 43.65 2.175 43.875C3 44.25 3.75 44.625 4.575 44.85C8.85 45.9 13.2 45.9 17.55 45.075C18.675 44.85 19.8 44.325 20.925 43.95C21.15 43.875 21.525 43.575 21.525 43.35C21.6 42.525 21.525 41.625 21.525 40.725C15.225 42.975 7.875 42.975 1.575 40.575ZM21.6 30.975C18.375 32.475 15 32.775 11.625 32.775C8.25 32.775 4.8 32.475 1.65 30.975C1.65 31.8 1.65 32.55 1.65 33.3C1.65 33.675 1.8 33.975 2.1 34.125C2.7 34.425 3.3 34.725 3.9 34.95C5.85 35.625 7.95 35.85 9.975 35.925C12.825 36.075 15.675 35.925 18.45 35.175C19.35 34.95 20.25 34.5 21.075 34.125C21.3 34.05 21.6 33.675 21.6 33.45C21.6 32.7 21.6 31.875 21.6 30.975ZM46.35 28.725C46.35 27.075 46.35 25.5 46.35 23.925C44.925 23.925 43.575 23.925 42.225 23.925C41.025 24 40.05 25.05 40.05 26.25C40.05 27.45 40.95 28.575 42.15 28.65C43.5 28.8 44.925 28.725 46.35 28.725Z" fill="#CF51CE"/>
<path d="M38.0253 15.1505C36.0753 15.1505 34.1253 15.1505 32.2503 15.1505C31.9503 15.1505 31.6503 15.0005 31.4253 14.8505C31.2753 14.7005 31.2003 14.2505 31.3503 14.1005C31.5003 13.8755 31.8003 13.6505 32.1003 13.6505C32.7003 13.5755 33.3003 13.6505 33.9003 13.6505C37.2003 13.6505 40.4253 13.6505 43.7253 13.6505C43.8753 13.6505 43.9503 13.6505 44.1003 13.6505C44.5503 13.7255 44.9253 14.0255 44.9253 14.4755C44.9253 14.9255 44.5503 15.2255 44.1003 15.2255C42.6753 15.2255 41.3253 15.2255 39.9003 15.2255C39.2253 15.1505 38.6253 15.1505 38.0253 15.1505Z" fill="#CF51CE"/>
<path d="M27.9744 15.1512C27.6744 15.1512 27.3744 15.1512 27.1494 15.1512C26.6994 15.1512 26.3994 14.8512 26.3994 14.4012C26.3994 13.9512 26.6994 13.5762 27.1494 13.5762C27.7494 13.5762 28.2744 13.5762 28.8744 13.5762C29.3244 13.5762 29.6244 13.9512 29.6244 14.4012C29.6244 14.8512 29.2494 15.1512 28.7994 15.1512C28.4994 15.1512 28.2744 15.1512 27.9744 15.1512Z" fill="#CF51CE"/>
<path d="M42.3738 27.15C41.9238 27.15 41.5488 26.775 41.5488 26.325C41.5488 25.875 41.9238 25.5 42.3738 25.5C42.8238 25.5 43.1238 25.875 43.1238 26.25C43.1988 26.775 42.8238 27.15 42.3738 27.15Z" fill="#CF51CE"/>
</svg>
