<svg xmlns="http://www.w3.org/2000/svg" xmlns:xlink="http://www.w3.org/1999/xlink">
<defs>

<symbol id="burger" viewBox="0 0 42 28" fill="none" xmlns="http://www.w3.org/2000/svg">
<rect width="42" height="4" rx="2" fill="currentColor"/>
<rect y="11.8182" width="42" height="4" rx="2" fill="currentColor"/>
<rect x="10" y="24" width="32" height="4" rx="2" fill="currentColor"/>
</symbol>

<symbol id="enter" viewBox="0 0 24 23" fill="none" xmlns="http://www.w3.org/2000/svg">
<path d="M2.74425 15.1776C2.15944 15.3995 1.86026 16.0567 2.13856 16.6169C3.13128 18.615 4.68829 20.2892 6.62787 21.4246C8.89452 22.7515 11.5471 23.2625 14.1444 22.8726C16.7418 22.4828 19.1274 21.2156 20.9047 19.2818C22.682 17.348 23.7437 14.8641 23.9135 12.2432C24.0832 9.62222 23.3507 7.02213 21.8377 4.87526C20.3246 2.72839 18.1224 1.16411 15.597 0.442526C13.0716 -0.279056 10.3753 -0.114455 7.95645 0.908958C5.88663 1.78469 4.12669 3.24411 2.88455 5.09754C2.53632 5.61713 2.74824 6.30741 3.29954 6.60286V6.60286C3.85085 6.89831 4.53187 6.68584 4.89254 6.17481C5.88143 4.77369 7.24594 3.66905 8.83905 2.99501C10.7815 2.17317 12.9467 2.04099 14.9747 2.62045C17.0026 3.1999 18.7712 4.45608 19.9862 6.18009C21.2012 7.90411 21.7894 9.99207 21.6531 12.0968C21.5168 14.2015 20.6642 16.1962 19.237 17.7491C17.8098 19.302 15.894 20.3196 13.8082 20.6326C11.7224 20.9457 9.59236 20.5353 7.77215 19.4698C6.27928 18.5959 5.06865 17.3245 4.26873 15.8076C3.97698 15.2543 3.32905 14.9558 2.74425 15.1776V15.1776Z" fill="currentColor"/>
<path d="M2.375 10.6C1.87794 10.6 1.475 11.0029 1.475 11.5C1.475 11.9971 1.87794 12.4 2.375 12.4V10.6ZM17.3864 12.1364C17.7379 11.7849 17.7379 11.2151 17.3864 10.8636L11.6588 5.13604C11.3074 4.78457 10.7375 4.78457 10.386 5.13604C10.0346 5.48751 10.0346 6.05736 10.386 6.40883L15.4772 11.5L10.386 16.5912C10.0346 16.9426 10.0346 17.5125 10.386 17.864C10.7375 18.2154 11.3074 18.2154 11.6588 17.864L17.3864 12.1364ZM2.375 12.4L16.75 12.4V10.6L2.375 10.6V12.4Z" fill="currentColor"/>
</symbol>

<symbol id="icon1" viewBox="0 0 70 70" fill="none" xmlns="http://www.w3.org/2000/svg">
<path d="M0 30C0 15.8579 0 8.7868 4.3934 4.3934C8.7868 0 15.8579 0 30 0H40C54.1421 0 61.2132 0 65.6066 4.3934C70 8.7868 70 15.8579 70 30V40C70 54.1421 70 61.2132 65.6066 65.6066C61.2132 70 54.1421 70 40 70H30C15.8579 70 8.7868 70 4.3934 65.6066C0 61.2132 0 54.1421 0 40V30Z" fill="currentColor"/>
<path d="M45.8749 25.55C44.5249 26.9 43.1749 28.25 41.7499 29.675C43.3999 31.85 43.9999 34.325 43.3999 37.025C42.8749 39.125 41.6749 40.85 39.8749 42.05C36.3499 44.525 31.6249 44 28.6999 40.85C25.6999 37.625 25.5499 32.9 28.3999 29.525C30.9499 26.45 35.8999 24.95 40.3249 28.175C41.6749 26.825 43.0249 25.475 44.3749 24.05C41.9749 22.025 39.1999 20.825 35.8999 20.6C35.8999 21.5 35.8999 22.325 35.8999 23.225C35.8999 23.975 35.5249 24.425 34.9249 24.425C34.3249 24.425 33.9499 23.975 33.9499 23.225C33.9499 21.275 33.9499 19.4 33.9499 17.45C33.9499 17.225 33.9499 17 33.9499 16.775C32.0749 16.85 30.2749 17.225 28.5499 17.9C22.5499 20.3 18.7249 24.65 17.1499 30.95C17.1499 31.1 17.0749 31.175 17.0749 31.325C16.9249 31.85 16.4749 32.15 15.9499 32.075C15.4249 31.925 15.1249 31.475 15.1999 30.875C15.7249 28.175 16.7749 25.7 18.3499 23.525C22.0999 18.5 26.9749 15.575 33.1999 14.975C33.4249 14.975 33.7249 14.9 34.0249 14.9C34.0249 14.075 34.0249 13.175 34.0249 12.35C34.0249 11.45 34.3249 11 34.9999 11C35.5999 11 35.9749 11.45 35.9749 12.275C35.9749 14.225 35.9749 16.1 35.9749 18.05C35.9749 18.275 35.9749 18.5 35.9749 18.725C39.7249 19.025 43.0249 20.375 45.7999 22.775C46.2499 22.325 46.6249 21.875 47.1499 21.35C46.1749 20.675 45.2749 19.925 44.2249 19.325C42.5749 18.35 40.8499 17.6 38.9749 17.225C38.8249 17.225 38.6749 17.15 38.5999 17.15C38.0749 17 37.7749 16.475 37.9249 15.95C38.0749 15.425 38.5249 15.125 39.1249 15.275C41.5249 15.725 43.6999 16.625 45.7249 17.975C46.6999 18.65 47.5999 19.325 48.7249 20.15C48.7999 19.85 49.0249 19.625 49.0249 19.4C49.0249 18.35 49.0249 17.375 49.0249 16.325C49.0249 15.95 49.1749 15.5 49.4749 15.275C50.6749 14 51.9499 12.725 53.2249 11.45C53.5999 11.075 53.9749 10.925 54.4249 11.15C54.8749 11.3 55.0249 11.75 55.0249 12.2C55.0249 13.175 55.0249 14.075 55.0249 15.125C55.9999 15.125 56.9749 15.125 57.9499 15.125C58.4749 15.125 58.8499 15.275 59.0749 15.725C59.2249 16.25 59.0749 16.625 58.6999 16.925C57.4249 18.125 56.2249 19.4 55.0249 20.6C54.7249 20.9 54.2749 21.05 53.8999 21.05C52.9249 21.125 51.8749 21.05 50.8999 21.05C50.6749 21.05 50.3749 21.275 50.0749 21.35C51.7249 23.225 52.9249 25.1 53.8249 27.275C54.7249 29.45 55.1749 31.625 55.3249 34.025C56.2249 34.025 57.1249 34.025 57.9499 34.025C58.6999 34.025 59.1499 34.4 59.1499 35C59.1499 35.6 58.6999 35.975 57.9499 35.975C55.9999 35.975 54.0499 35.975 52.0999 35.975C51.8749 35.975 51.6499 35.975 51.5749 35.975C51.1249 37.625 50.8999 39.275 50.2999 40.775C48.3499 45.8 44.7499 49.1 39.5749 50.675C39.4249 50.675 39.3499 50.75 39.1999 50.75C38.5999 50.9 38.1499 50.6 37.9999 50.075C37.8499 49.55 38.1499 49.1 38.7499 48.875C39.1249 48.725 39.4999 48.65 39.7999 48.5C45.4999 46.325 48.7249 42.125 49.3999 36.125C49.3999 36.05 49.3999 36.05 49.3999 35.9C48.5749 35.9 47.6749 35.9 46.8499 35.9C46.0999 35.9 45.6499 35.525 45.6499 34.925C45.6499 34.325 46.0999 33.95 46.8499 33.95C48.7999 33.95 50.6749 33.95 52.6249 33.95C52.8499 33.95 53.0749 33.95 53.2999 33.95C52.9999 29.675 51.4999 25.925 48.7249 22.775C48.2749 23.225 47.8249 23.675 47.3749 24.125C47.4499 24.2 47.5249 24.35 47.6749 24.5C49.0999 26.225 50.1499 28.175 50.7499 30.35C51.0499 31.25 50.8249 31.775 50.2249 32C49.6249 32.15 49.1749 31.775 48.9499 30.95C48.1999 29 47.2249 27.2 45.8749 25.55ZM38.8999 29.675C36.6499 27.8 32.7499 27.65 30.1249 30.35C27.5749 33.05 27.5749 37.025 30.1999 39.65C32.8249 42.275 36.8749 42.35 39.4999 39.8C42.1999 37.25 42.1999 33.35 40.2499 30.95C39.8749 31.325 39.5749 31.625 39.1999 32C38.8999 32.225 38.9749 32.45 39.1249 32.75C39.6499 33.8 39.8749 34.85 39.5749 35.975C38.9749 38.6 36.2749 40.25 33.7249 39.575C31.0999 38.9 29.5249 36.125 30.2749 33.575C31.0999 30.95 33.8749 29.375 36.3499 30.425C37.3999 30.875 37.9999 30.575 38.5249 29.825C38.7499 29.825 38.8249 29.75 38.8999 29.675ZM37.5499 33.725C36.8749 34.4 36.2749 35.075 35.6749 35.675C35.2999 36.05 34.7749 36.05 34.3999 35.675C34.0249 35.3 33.9499 34.85 34.2499 34.4C34.3999 34.25 34.5499 34.1 34.6999 33.95C35.2249 33.425 35.7499 32.9 36.2749 32.375C34.8499 31.775 33.4249 32.225 32.6749 33.35C31.9249 34.475 32.0749 35.975 33.0499 36.95C34.0249 37.925 35.4499 38.075 36.6499 37.325C37.6999 36.575 38.1499 35.15 37.5499 33.725ZM50.8999 19.1C51.7249 19.1 52.4749 19.1 53.2249 19.1C53.3749 19.1 53.5999 19.1 53.6749 19.025C54.2749 18.425 54.9499 17.75 55.6999 17C55.0249 17 54.4999 17 54.0499 17C53.3749 17 52.9999 16.625 52.9999 15.95C52.9999 15.425 52.9999 14.9 52.9999 14.225C52.2499 14.975 51.6499 15.575 51.0499 16.175C50.9749 16.25 50.8999 16.4 50.8999 16.55C50.8249 17.45 50.8999 18.2 50.8999 19.1Z" fill="white"/>
<path d="M14.7498 35.975C13.9248 35.975 13.0248 35.975 12.1248 35.975C11.3748 35.975 10.9248 35.6 10.9248 35C10.9248 34.4 11.3748 34.1 12.0498 34.025C14.2248 34.025 16.3248 34.025 18.4998 34.025C18.7998 32.75 18.9498 31.55 19.3248 30.35C19.6248 29.375 20.0748 28.4 20.4498 27.5C20.7498 26.9 21.2748 26.675 21.7998 26.975C22.3248 27.275 22.4748 27.8 22.0998 28.4C21.1998 30.2 20.5998 32.075 20.5248 34.1C21.3498 34.1 22.0998 34.1 22.9248 34.1C23.8248 34.1 24.2748 34.4 24.3498 35.075C24.3498 35.75 23.8998 36.05 22.9248 36.05C21.0498 36.05 19.2498 36.05 17.3748 36.05C17.1498 36.05 16.9248 36.05 16.6998 36.05C16.7748 37.625 16.9998 39.125 17.5248 40.55C19.7748 47.075 24.1998 51.2 30.8748 52.85C31.0998 52.925 31.3998 53 31.6248 53.15C31.9998 53.45 32.1498 53.825 31.9248 54.275C31.6998 54.725 31.3248 54.95 30.7998 54.875C28.4748 54.35 26.2248 53.525 24.1998 52.25C18.7998 48.5 15.6498 43.4 14.8998 36.8C14.8998 36.575 14.8248 36.35 14.8248 36.125C14.8248 36.125 14.8248 36.05 14.7498 35.975Z" fill="white"/>
<path d="M35.9748 55.175C35.9748 56.075 35.9748 56.9 35.9748 57.8C35.9748 58.55 35.5998 59 34.9998 59C34.3998 59 34.0248 58.55 34.0248 57.8C34.0248 55.85 34.0248 53.9 34.0248 51.95C34.0248 51.725 34.0248 51.5 34.0248 51.35C33.0498 51.2 32.1498 51.05 31.2498 50.825C25.1748 49.25 21.1998 45.5 19.3248 39.5C19.2498 39.275 19.1748 39.125 19.1748 38.9C19.1748 38.375 19.3998 38.075 19.8498 37.925C20.2998 37.775 20.7498 37.925 20.9748 38.375C21.0498 38.6 21.1248 38.825 21.1998 39.05C22.8498 44.75 28.1748 49.1 34.0248 49.325C34.0248 48.5 34.0248 47.6 34.0248 46.775C34.0248 46.025 34.3998 45.575 34.9248 45.575C35.5248 45.575 35.8998 46.025 35.8998 46.775C35.8998 48.65 35.8998 50.6 35.8998 52.475C35.8998 52.7 35.8998 52.925 35.8998 53.3C37.0998 53.075 38.2998 52.925 39.4248 52.7C41.4498 52.25 43.2498 51.425 44.9748 50.3C45.1248 50.225 45.2748 50.075 45.4248 50C45.8748 49.85 46.2498 49.925 46.5498 50.3C46.8498 50.675 46.7748 51.125 46.4748 51.425C46.3248 51.575 46.0998 51.725 45.8748 51.875C42.9498 53.75 39.7248 54.8 36.2748 55.1C36.2748 55.1 36.1248 55.175 35.9748 55.175Z" fill="white"/>
<path d="M51.3505 46.3249C50.3755 46.3249 50.0005 45.575 50.3755 44.75C51.0505 43.4 51.7255 41.9749 52.3255 40.5499C52.5505 39.9499 52.7005 39.2749 52.8505 38.6749C53.0005 38.0749 53.4505 37.7749 53.9755 37.8499C54.5005 37.9999 54.8005 38.45 54.7255 39.125C54.2755 41.525 53.3755 43.6999 52.0255 45.7249C51.8005 46.0249 51.5005 46.2499 51.3505 46.3249Z" fill="white"/>
<path d="M26.3754 23.225C26.1504 23 25.7754 22.775 25.6254 22.4C25.4004 21.95 25.7004 21.575 26.0754 21.275C27.5004 20.375 29.0754 19.625 30.7254 19.25C31.2504 19.1 31.6254 19.25 31.8504 19.7C32.1504 20.225 31.9254 20.9 31.3254 21.125C29.7504 21.575 28.3254 22.175 26.9754 23.075C26.9004 23.075 26.7504 23.075 26.3754 23.225Z" fill="white"/>
<path d="M24.6504 24.65C24.6504 25.175 24.2004 25.55 23.6754 25.55C23.1504 25.55 22.7754 25.1001 22.7754 24.5751C22.7754 24.0501 23.2254 23.675 23.7504 23.675C24.2004 23.675 24.6504 24.125 24.6504 24.65Z" fill="white"/>
<path d="M49.7 48.35C49.7 48.875 49.25 49.325 48.725 49.325C48.2 49.325 47.75 48.95 47.75 48.425C47.75 47.9 48.125 47.45 48.65 47.45C49.25 47.45 49.7 47.825 49.7 48.35Z" fill="white"/>
</symbol>

<symbol id="icon2" width="71" height="70" viewBox="0 0 71 70" fill="none" xmlns="http://www.w3.org/2000/svg">
<path d="M0.599609 30C0.599609 15.8579 0.599609 8.7868 4.99301 4.3934C9.38641 0 16.4575 0 30.5996 0H40.5996C54.7417 0 61.8128 0 66.2062 4.3934C70.5996 8.7868 70.5996 15.8579 70.5996 30V40C70.5996 54.1421 70.5996 61.2132 66.2062 65.6066C61.8128 70 54.7417 70 40.5996 70H30.5996C16.4575 70 9.38641 70 4.99301 65.6066C0.599609 61.2132 0.599609 54.1421 0.599609 40V30Z" fill="currentColor"/>
<path d="M14.7996 51.6H36.3996V54C36.3996 55.325 37.4746 56.4 38.7996 56.4H41.9996C42.6996 56.4 43.3621 56.0875 43.8121 55.5625C43.8246 55.5625 43.8371 55.5625 43.8496 55.55C44.4371 56.1 45.1996 56.4 45.9996 56.4H55.5996C56.9246 56.4 57.9996 55.325 57.9996 54C57.9996 53.5875 57.8871 53.175 57.6746 52.825C58.7621 52.15 59.1246 50.7375 58.4746 49.625C59.0746 49.25 59.4746 48.625 59.5746 47.925C59.6746 47.225 59.4496 46.5125 58.9746 46C59.6121 45.3 59.7746 44.2875 59.3871 43.425C58.9996 42.5625 58.1371 42 57.1871 42H54.7871V17.2C54.7871 15.4375 53.3496 14 51.5871 14H14.7996C13.0371 14 11.5996 15.4375 11.5996 17.2V48.4C11.5996 50.1625 13.0371 51.6 14.7996 51.6ZM41.9996 54.8H38.7996C38.3621 54.8 37.9996 54.4375 37.9996 54V46.8C37.9996 46.3625 38.3621 46 38.7996 46H41.9996C42.4371 46 42.7996 46.3625 42.7996 46.8V54C42.7996 54.4375 42.4371 54.8 41.9996 54.8ZM57.9996 44.4C57.9996 44.8375 57.6371 45.2 57.1996 45.2H54.7996C54.3621 45.2 53.9996 45.5625 53.9996 46C53.9996 46.4375 54.3621 46.8 54.7996 46.8H57.1996C57.6371 46.8 57.9996 47.1625 57.9996 47.6C57.9996 48.0375 57.6371 48.4 57.1996 48.4H54.7996C54.3621 48.4 53.9996 48.7625 53.9996 49.2C53.9996 49.6375 54.3621 50 54.7996 50H56.3996C56.8371 50 57.1996 50.3625 57.1996 50.8C57.1996 51.2375 56.8371 51.6 56.3996 51.6H54.7996C54.3621 51.6 53.9996 51.9625 53.9996 52.4C53.9996 52.8375 54.3621 53.2 54.7996 53.2H55.5996C56.0371 53.2 56.3996 53.5625 56.3996 54C56.3996 54.4375 56.0371 54.8 55.5996 54.8H45.9996C45.1121 54.8 44.3996 54.0875 44.3996 53.2V46.4625C45.3996 45.8375 46.1496 44.875 46.5246 43.7625C47.2371 41.625 47.5996 39.3875 47.5996 37.1375C47.5996 37.025 47.6746 36.9375 47.7746 36.9C48.0496 36.85 48.7621 36.725 49.4371 38.05C49.8121 38.8125 49.9996 39.65 49.9871 40.5125V42.8C49.9871 43.2375 50.3496 43.6 50.7871 43.6H57.1871C57.6371 43.6 57.9996 43.9625 57.9996 44.4ZM51.5996 42V40.5125C51.6121 39.4125 51.3621 38.3125 50.8746 37.325C50.0871 35.7875 48.8871 35.075 47.4996 35.325C46.6246 35.4875 45.9996 36.25 45.9996 37.1375C45.9996 39.2125 45.6621 41.2875 45.0121 43.2625C44.7621 44 44.2746 44.625 43.6246 45.0625C43.1871 44.65 42.5996 44.425 41.9996 44.4125H38.7996C37.4746 44.4125 36.3996 45.4875 36.3996 46.8125V50.0125H14.7996C13.9121 50.0125 13.1996 49.3 13.1996 48.4125V22H53.1996V42H51.5996ZM14.7996 15.6H51.5996C52.4871 15.6 53.1996 16.3125 53.1996 17.2V20.4H13.1996V17.2C13.1996 16.3125 13.9121 15.6 14.7996 15.6Z" fill="white"/>
<path fill-rule="evenodd" clip-rule="evenodd" d="M16.3988 17.999C16.3988 18.4365 16.0363 18.799 15.5988 18.799C15.1613 18.799 14.7988 18.4365 14.7988 17.999C14.7988 17.5615 15.1613 17.199 15.5988 17.199C16.0363 17.199 16.3988 17.5615 16.3988 17.999Z" fill="white"/>
<path fill-rule="evenodd" clip-rule="evenodd" d="M19.6001 17.999C19.6001 18.4365 19.2376 18.799 18.8001 18.799C18.3626 18.799 18.0001 18.4365 18.0001 17.999C18.0001 17.5615 18.3626 17.199 18.8001 17.199C19.2376 17.199 19.6001 17.5615 19.6001 17.999Z" fill="white"/>
<path fill-rule="evenodd" clip-rule="evenodd" d="M22.7991 17.999C22.7991 18.4365 22.4366 18.799 21.9991 18.799C21.5616 18.799 21.1991 18.4365 21.1991 17.999C21.1991 17.5615 21.5616 17.199 21.9991 17.199C22.4366 17.199 22.7991 17.5615 22.7991 17.999Z" fill="white"/>
<path d="M17.9996 38.8005H30.7996C32.1246 38.8005 33.1996 37.7255 33.1996 36.4005V26.8005C33.1996 25.4755 32.1246 24.4005 30.7996 24.4005H17.9996C16.6746 24.4005 15.5996 25.4755 15.5996 26.8005V36.4005C15.5996 37.7255 16.6746 38.8005 17.9996 38.8005ZM19.9621 37.2005L23.6621 31.3755L25.4371 33.6005L23.1621 37.2005H19.9621ZM30.7996 37.2005H25.0621L29.2746 30.5755L31.5996 33.488V36.413C31.5996 36.838 31.2371 37.2005 30.7996 37.2005ZM17.1996 26.8005C17.1996 26.363 17.5621 26.0005 17.9996 26.0005H30.7996C31.2371 26.0005 31.5996 26.363 31.5996 26.8005V30.9255L29.8246 28.7005C29.6621 28.5005 29.4121 28.388 29.1621 28.4005C28.8996 28.413 28.6746 28.5505 28.5246 28.7755L26.3621 32.1755L24.2246 29.5005C24.0621 29.3005 23.8121 29.188 23.5621 29.2005C23.2996 29.213 23.0746 29.3505 22.9246 29.5755L18.0746 37.2005H17.9996C17.5621 37.2005 17.1996 36.838 17.1996 36.4005V26.8005Z" fill="white"/>
<path fill-rule="evenodd" clip-rule="evenodd" d="M20.3988 28.3995C20.3988 28.837 20.0363 29.1995 19.5988 29.1995C19.1613 29.1995 18.7988 28.837 18.7988 28.3995C18.7988 27.962 19.1613 27.5995 19.5988 27.5995C20.0363 27.5995 20.3988 27.962 20.3988 28.3995Z" fill="white"/>
<path fill-rule="evenodd" clip-rule="evenodd" d="M49.9996 25.199H36.3996C35.9621 25.199 35.5996 25.5615 35.5996 25.999C35.5996 26.4365 35.9621 26.799 36.3996 26.799H49.9996C50.4371 26.799 50.7996 26.4365 50.7996 25.999C50.7996 25.5615 50.4371 25.199 49.9996 25.199Z" fill="white"/>
<path fill-rule="evenodd" clip-rule="evenodd" d="M49.9996 28.4005H36.3996C35.9621 28.4005 35.5996 28.763 35.5996 29.2005C35.5996 29.638 35.9621 30.0005 36.3996 30.0005H49.9996C50.4371 30.0005 50.7996 29.638 50.7996 29.2005C50.7996 28.763 50.4371 28.4005 49.9996 28.4005Z" fill="white"/>
<path fill-rule="evenodd" clip-rule="evenodd" d="M49.9996 31.5995H36.3996C35.9621 31.5995 35.5996 31.962 35.5996 32.3995C35.5996 32.837 35.9621 33.1995 36.3996 33.1995H49.9996C50.4371 33.1995 50.7996 32.837 50.7996 32.3995C50.7996 31.962 50.4371 31.5995 49.9996 31.5995Z" fill="white"/>
<path fill-rule="evenodd" clip-rule="evenodd" d="M43.5996 34.801H36.3996C35.9621 34.801 35.5996 35.1635 35.5996 35.601C35.5996 36.0385 35.9621 36.401 36.3996 36.401H43.5996C44.0371 36.401 44.3996 36.0385 44.3996 35.601C44.3996 35.1635 44.0371 34.801 43.5996 34.801Z" fill="white"/>
<path fill-rule="evenodd" clip-rule="evenodd" d="M34.7996 42H16.3996C15.9621 42 15.5996 42.3625 15.5996 42.8C15.5996 43.2375 15.9621 43.6 16.3996 43.6H34.7996C35.2371 43.6 35.5996 43.2375 35.5996 42.8C35.5996 42.3625 35.2371 42 34.7996 42Z" fill="white"/>
<path fill-rule="evenodd" clip-rule="evenodd" d="M32.3996 45.199H16.3996C15.9621 45.199 15.5996 45.5615 15.5996 45.999C15.5996 46.4365 15.9621 46.799 16.3996 46.799H32.3996C32.8371 46.799 33.1996 46.4365 33.1996 45.999C33.1996 45.5615 32.8371 45.199 32.3996 45.199Z" fill="white"/>
</symbol>

<symbol id="icon3" viewBox="0 0 70 70" fill="none" xmlns="http://www.w3.org/2000/svg">
<path d="M0 30C0 15.8579 0 8.7868 4.3934 4.3934C8.7868 0 15.8579 0 30 0H40C54.1421 0 61.2132 0 65.6066 4.3934C70 8.7868 70 15.8579 70 30V40C70 54.1421 70 61.2132 65.6066 65.6066C61.2132 70 54.1421 70 40 70H30C15.8579 70 8.7868 70 4.3934 65.6066C0 61.2132 0 54.1421 0 40V30Z" fill="currentColor"/>
<path d="M24.3441 58.1533C23.474 57.7666 23.0873 57.1866 23.184 56.2199C23.184 55.7365 23.184 55.1564 23.184 54.6731C22.9906 54.6731 22.7973 54.6731 22.604 54.6731C20.2838 54.6731 18.0603 54.6731 15.7401 54.6731C14.58 54.6731 14 54.093 14 52.933C14 52.4496 14 51.9662 14 51.4828C14 50.9995 14.29 50.7095 14.6767 50.7095C15.0634 50.7095 15.3534 50.9995 15.3534 51.4828C15.3534 51.9662 15.3534 52.4496 15.3534 52.933C15.3534 53.1263 15.4501 53.223 15.6435 53.223C18.157 53.223 20.5738 53.223 23.184 53.223C23.184 51.6762 23.184 50.2261 23.184 48.776C21.3472 47.6159 20.7672 46.8425 20.4771 44.7157C19.317 44.7157 18.157 44.619 17.0936 44.7157C16.1268 44.8124 15.4501 45.8758 15.3534 46.9392C15.3534 47.4226 15.3534 47.8093 15.3534 48.2926C15.3534 48.776 15.0634 49.066 14.6767 49.066C14.29 49.066 14 48.776 14 48.2926C14 47.8093 14 47.2292 14 46.7458C14.0967 45.5858 14.6767 44.619 15.6435 43.9423C15.7401 43.8456 15.8368 43.8456 15.9335 43.749C15.5468 42.4922 15.0634 41.3321 14.7734 40.172C13.2266 33.9849 14.1933 28.2812 17.7703 22.9641C17.9636 22.6741 18.0603 22.4808 17.8669 22.0941C17.3836 21.1273 17.5769 19.9673 18.3503 19.1939C19.1237 18.4205 20.1871 18.1305 21.2505 18.6138C21.4439 18.8072 21.6372 18.7105 21.8306 18.5172C22.9906 17.7438 24.0541 16.9704 25.2141 16.197C25.6975 15.907 26.0842 16.0036 26.2775 16.3903C26.4709 16.777 26.2775 17.067 25.8909 17.3571C24.8274 18.1305 23.764 18.8072 22.7006 19.5806C22.5073 19.6772 22.5073 19.8706 22.604 20.0639C22.9906 21.0307 22.7973 21.9974 22.1206 22.6741C21.4439 23.4475 20.5738 23.7375 19.5104 23.4475C19.2204 23.3508 19.1237 23.4475 18.9304 23.6409C16.9969 26.4444 15.8368 29.5379 15.5468 33.0182C15.1601 36.4984 15.7401 39.7853 17.0936 42.9756C17.1902 43.2656 17.3836 43.3623 17.7703 43.3623C19.1237 43.3623 20.4771 43.3623 21.7339 43.3623C21.8306 42.9756 21.7339 42.7822 21.5405 42.5889C20.3805 41.6221 19.6071 40.4621 19.4137 39.012C19.4137 38.7219 19.317 38.6253 19.027 38.5286C17.2869 38.0452 16.7069 35.9184 17.9636 34.565C18.0603 34.4683 18.157 34.1783 18.157 33.9849C18.157 32.5348 18.157 31.1814 18.157 29.7313C18.157 27.6045 19.5104 26.0577 21.4439 25.671C21.7339 25.5743 22.1206 25.5743 22.4106 25.5743C23.8607 25.5743 25.3108 25.5743 26.7609 25.5743C27.7276 25.5743 28.6944 25.8643 29.4678 26.5411C29.5645 26.6377 29.7578 26.6377 29.8545 26.6377C30.7245 26.251 31.5946 26.1544 32.5613 26.1544C33.0447 26.1544 33.4314 26.1544 33.9148 26.1544C34.3015 26.1544 34.5915 26.4444 34.6881 26.8311C34.6881 27.2178 34.3981 27.5078 33.9148 27.5078C33.238 27.5078 32.5613 27.5078 31.8846 27.5078C30.1445 27.5078 28.6944 28.8612 28.5977 30.6014C28.501 32.0515 28.5977 33.5016 28.5977 34.9517C28.5977 35.0483 28.5977 35.0483 28.5977 35.145C28.9844 35.2417 28.9844 35.0483 29.0811 34.7583C29.2744 33.6949 29.6611 32.7282 30.2412 31.8581C30.6279 31.3747 30.8212 31.2781 31.4012 31.4714C33.238 32.0515 34.9782 32.5348 36.9116 32.7282C37.395 32.7282 37.9751 32.7282 38.4584 32.6315C38.7484 32.5348 39.1351 32.3415 39.3285 32.1481C39.7152 31.7614 40.1985 31.7614 40.4886 32.2448C40.9719 33.0182 41.3586 33.8883 41.4553 34.7583C41.4553 34.9517 41.552 35.2417 41.842 35.145C41.842 35.0483 41.842 34.9517 41.842 34.855C41.842 33.8883 41.842 32.9215 41.842 31.9548C41.842 31.4714 41.7453 31.1814 41.1653 31.1814C40.7786 31.0847 40.5852 30.7947 40.5852 30.408C40.5852 29.6346 40.2952 29.0546 39.8119 28.4745C39.2318 27.7978 38.4584 27.5078 37.685 27.5078C37.395 27.5078 37.105 27.5078 36.9116 27.5078C36.5249 27.5078 36.2349 27.2178 36.2349 26.8311C36.2349 26.4444 36.5249 26.1544 36.9116 26.1544C37.9751 26.0577 39.0385 26.251 39.9085 26.7344C40.8753 25.7677 42.0353 25.4777 43.2921 25.5743C44.7422 25.5743 46.0956 25.5743 47.5457 25.5743C49.3825 25.5743 50.8326 26.7344 51.316 28.4745C51.316 28.5712 51.4127 28.7646 51.606 28.8612C52.1861 29.2479 52.4761 29.828 52.4761 30.5047C52.4761 31.5681 52.4761 32.7282 52.4761 33.7916C52.4761 33.9849 52.5728 34.2749 52.7661 34.3716C54.0229 35.7251 53.4428 37.7552 51.7027 38.3352C51.4127 38.4319 51.4127 38.5286 51.316 38.7219C51.026 40.172 50.3493 41.4288 49.1892 42.3955C48.9958 42.4922 48.9958 42.7822 48.8025 42.9756L48.8992 43.0723C49.5759 43.0723 50.1559 43.0723 50.8326 43.0723C51.5094 43.0723 52.2827 43.0723 52.9595 43.0723C53.3462 43.0723 53.4428 42.9756 53.6362 42.6856C54.9896 39.4953 55.473 36.2084 55.183 32.8248C54.8929 29.4413 53.7329 26.3477 51.8961 23.5442C51.7027 23.2542 51.5094 23.1575 51.2193 23.2542C50.2526 23.5442 49.3825 23.2542 48.7058 22.4808C48.0291 21.7074 47.8358 20.8373 48.2225 19.8706C48.1258 19.8706 48.0291 19.6772 47.8358 19.4839C45.0322 17.2604 41.842 15.8103 38.2651 15.2302C37.8784 15.1336 37.685 15.2302 37.4917 15.6169C36.5249 17.3571 34.0114 17.2604 33.0447 15.6169C32.8514 15.3269 32.658 15.2302 32.368 15.3269C31.2079 15.6169 30.0478 15.907 28.8877 16.197C28.6944 16.2937 28.3077 16.2937 28.1143 16.197C27.921 16.1003 27.7277 15.8103 27.8243 15.6169C27.921 15.4236 28.1143 15.0369 28.3077 15.0369C29.4678 14.6502 30.5312 14.4569 31.6913 14.1668C31.7879 14.1668 31.7879 14.1668 31.8846 14.1668C32.4647 14.1668 32.7547 13.9735 32.948 13.3935C33.4314 12.2334 34.3015 11.75 35.4615 11.75C36.5249 11.8467 37.395 12.33 37.7817 13.3935C37.9751 13.7801 38.1684 13.8768 38.5551 13.9735C42.422 14.5535 45.8056 16.0036 48.8025 18.5172C49.0925 18.7105 49.2859 18.8072 49.6726 18.6138C50.6393 18.2271 51.7994 18.5172 52.4761 19.2905C53.1528 20.0639 53.3462 21.224 52.8628 22.1908C52.7661 22.3841 52.6694 22.5774 52.8628 22.8675C57.2131 29.3446 57.7931 36.2084 54.8929 43.4589C54.8929 43.5556 54.7963 43.6523 54.7963 43.749C54.9896 43.8456 55.0863 43.9423 55.2796 44.1357C56.2464 44.909 56.7297 45.8758 56.7297 47.1325C56.7297 49.066 56.7297 51.0962 56.7297 53.0296C56.7297 54.1897 56.1497 54.7698 54.9896 54.7698C52.6694 54.7698 50.4459 54.7698 48.1258 54.7698C47.9324 54.7698 47.7391 54.7698 47.5457 54.7698C47.5457 55.3498 47.5457 55.8332 47.5457 56.3165C47.6424 57.2833 47.2557 57.8633 46.3857 58.25C38.9418 58.1533 31.6913 58.1533 24.3441 58.1533ZM40.1985 47.1325C39.9085 50.2261 37.5884 51.8695 35.3649 51.8695C34.2048 51.8695 33.238 51.5795 32.368 50.8061C31.1112 49.8394 30.5312 48.5826 30.4345 47.0359C29.3711 47.0359 28.4044 47.0359 27.341 47.0359C25.6008 47.0359 24.5374 48.0993 24.5374 49.8394C24.5374 51.9662 24.5374 54.093 24.5374 56.2199C24.5374 56.6066 24.6341 56.7999 25.1175 56.7999C29.0811 56.7999 33.0447 56.7999 37.0083 56.7999C39.9085 56.7999 42.8087 56.7999 45.7089 56.7999C45.9023 56.7999 46.1923 56.8966 46.1923 56.5099C46.1923 54.1897 46.1923 51.9662 46.1923 49.6461C46.1923 48.3893 45.1289 47.2292 43.9688 47.2292C42.6154 47.0359 41.4553 47.1325 40.1985 47.1325ZM39.9085 33.8883C36.815 34.9517 34.1081 33.7916 31.3046 33.1149C31.2079 33.2115 31.1112 33.3082 31.1112 33.5016C30.6279 34.1783 30.4345 34.9517 30.4345 35.7251C30.4345 37.3685 30.3378 39.012 30.5312 40.5587C30.8212 43.0722 33.1414 44.909 35.6549 44.7157C38.1684 44.5224 40.1985 42.4922 40.1985 39.9787C40.1985 38.5286 40.1985 37.0785 40.1985 35.6284C40.1985 35.0483 40.0052 34.4683 39.9085 33.8883ZM21.0572 32.4381C20.9605 33.0182 20.7672 33.5016 20.6705 33.9849C20.5738 35.435 20.5738 36.9818 20.6705 38.4319C20.8638 41.0421 23.184 42.7822 25.6975 42.3955C26.9543 42.2022 28.0177 41.4288 28.6944 40.3654C28.5977 40.3654 28.501 40.2687 28.501 40.2687C26.8576 39.592 26.2775 38.0452 27.1476 36.4984C27.1476 36.4018 27.2443 36.4018 27.2443 36.3051C27.2443 35.3384 27.2443 34.4683 27.2443 33.5016C25.1175 33.5016 23.184 33.0182 21.0572 32.4381ZM55.183 53.3196C55.183 51.0962 55.183 48.9693 55.183 46.8425C55.183 45.8758 54.4096 44.909 53.4428 44.8124C52.2827 44.7157 51.2193 44.8124 50.0593 44.8124C49.7692 46.9392 49.1892 47.8093 47.3524 48.8727C47.3524 50.4194 47.3524 51.8695 47.3524 53.3196C50.0593 53.3196 52.5728 53.3196 55.183 53.3196ZM41.9387 40.2687C41.9387 40.3654 42.0353 40.4621 42.0353 40.4621C43.0021 41.9122 44.9356 42.6856 46.579 42.2989C48.4158 41.8155 49.7692 40.3654 49.8659 38.5286C49.9626 37.1752 49.9626 35.7251 49.8659 34.3716C49.8659 33.8883 49.6726 33.3082 49.6726 32.8248C47.4491 33.8883 45.4189 33.2115 43.2921 32.8248C43.2921 33.7916 43.2921 34.7583 43.2921 35.7251C43.2921 36.0151 43.3888 36.2084 43.4855 36.4018C44.1622 37.7552 43.6788 39.3986 42.2287 39.9787C42.132 40.172 42.0353 40.2687 41.9387 40.2687ZM41.0686 27.7011C41.3586 28.3779 41.6487 29.0546 41.9387 29.7313C42.0353 30.0213 42.132 30.118 42.3254 30.3113C42.6154 30.6014 42.9054 30.8914 43.1954 31.2781C43.2921 31.3747 43.4854 31.5681 43.5821 31.6648C44.2588 31.8581 44.8389 32.0515 45.5156 32.0515C46.4823 32.1481 47.3524 32.1481 48.3191 32.0515C48.6092 32.0515 48.8025 31.6648 48.9958 31.4714C49.1892 31.2781 49.3825 30.988 49.5759 30.988C49.7692 30.988 50.0593 31.1814 50.2526 31.3747C50.5426 31.7614 50.736 32.1481 50.9293 32.6315C50.9293 31.8581 50.9293 31.1814 50.9293 30.6014C50.9293 30.5047 50.736 30.3113 50.6393 30.2147C50.1559 30.118 49.9626 29.828 49.9626 29.3446C49.8659 28.0878 48.8992 27.1211 47.6424 27.1211C45.999 27.1211 44.3555 27.1211 42.7121 27.1211C42.0353 27.0244 41.4553 27.3145 41.0686 27.7011ZM19.6071 32.4381C19.8004 32.1481 19.9938 31.8581 20.0904 31.5681C20.4771 30.988 20.6705 30.8914 21.3472 31.0847C22.3139 31.3747 23.2807 31.5681 24.2474 31.8581C25.2141 32.0515 26.2775 32.2448 27.341 32.0515C27.2443 30.408 27.4376 28.8612 28.5977 27.7011C28.1143 27.3145 27.631 27.1211 27.0509 27.1211C25.4075 27.1211 23.8607 27.1211 22.2173 27.1211C20.7672 27.1211 19.7037 28.0878 19.6071 29.5379C19.5104 30.408 19.6071 31.4714 19.6071 32.4381ZM37.2983 45.7791C35.7516 46.1658 35.2682 46.2625 33.238 45.7791C33.5281 46.9392 32.8514 47.2292 31.8846 47.0359C31.9813 48.9693 33.5281 50.5161 35.4615 50.5161C37.395 50.4194 38.9418 48.8727 38.8451 47.1325C38.4584 47.0359 37.9751 47.0359 37.7817 46.8425C37.395 46.6492 37.395 46.1658 37.2983 45.7791ZM23.6674 47.5192C24.1507 47.0359 24.6341 46.6492 25.1175 46.2625C25.8909 45.7791 26.6642 45.6824 27.631 45.6824C27.8243 45.6824 28.0177 45.5858 28.0177 45.4891C28.1143 45.2957 28.1143 45.0057 28.211 44.619C27.341 44.7157 26.7609 44.5223 26.8576 43.4589C25.6008 43.8456 24.4407 43.8456 23.2807 43.5556C23.184 43.9423 23.0873 44.329 22.894 44.5224C22.7006 44.7157 22.2173 44.7157 21.9272 44.8124C21.8306 45.8758 22.604 47.0359 23.6674 47.5192ZM43.7755 43.5556C43.5821 44.5224 43.5821 44.5224 42.5187 44.7157C42.422 45.5858 42.5187 45.6824 43.3888 45.6824C44.4522 45.6824 45.4189 45.9725 46.1923 46.7458C46.4823 46.9392 46.6757 47.2292 46.9657 47.5192C48.1258 47.0359 48.9958 45.6824 48.8025 44.7157C47.7391 44.619 47.6424 44.7157 47.5457 43.5556C46.1923 43.9423 45.0322 43.8456 43.7755 43.5556ZM20.1871 22.2874C20.8638 22.2874 21.4439 21.7074 21.4439 21.0307C21.4439 20.354 20.8638 19.7739 20.2838 19.7739C19.6071 19.7739 19.027 20.2573 19.027 20.934C18.9304 21.7074 19.5104 22.2874 20.1871 22.2874ZM35.2682 15.5203C35.9449 15.5203 36.5249 14.9402 36.5249 14.2635C36.5249 13.5868 35.9449 13.1034 35.2682 13.0068C34.5915 13.0068 34.0114 13.5868 34.0114 14.2635C34.1081 15.0369 34.5915 15.5203 35.2682 15.5203ZM50.4459 22.2874C51.1227 22.2874 51.7027 21.7074 51.7027 21.0307C51.7027 20.354 51.2193 19.8706 50.5426 19.7739C49.8659 19.7739 49.2859 20.2573 49.2859 20.934C49.1892 21.7074 49.7692 22.2874 50.4459 22.2874ZM31.7879 45.6824C31.8846 45.1024 31.6913 44.7157 31.3046 44.7157C30.7245 44.619 30.1445 44.7157 29.4678 44.7157C29.4678 45.1024 29.3711 45.3924 29.3711 45.6824C30.2412 45.6824 31.0146 45.6824 31.7879 45.6824ZM41.0686 44.7157C40.5852 44.7157 40.1019 44.7157 39.6185 44.7157C38.9418 44.7157 38.6518 45.0057 38.8451 45.6824C39.6185 45.6824 40.3919 45.6824 41.262 45.6824C41.1653 45.2957 41.1653 45.0057 41.0686 44.7157ZM42.422 43.2656C42.422 42.3955 41.552 42.2989 41.262 41.7188C40.9719 42.2989 40.7786 42.6856 40.4886 43.2656C41.1653 43.2656 41.7453 43.2656 42.422 43.2656ZM30.0478 43.2656C29.7578 42.7822 29.5645 42.2989 29.2744 41.8155C28.9844 42.1055 28.7911 42.2989 28.501 42.4922C28.211 42.6855 27.921 42.8789 28.1143 43.2656C28.8877 43.2656 29.4678 43.2656 30.0478 43.2656ZM28.9844 38.9153C28.9844 38.1419 28.9844 37.4652 28.9844 36.6918C28.4044 36.7885 28.1143 37.1752 28.1143 37.6585C28.1143 38.2386 28.4044 38.7219 28.9844 38.9153ZM41.552 36.6918C41.552 37.4652 41.552 38.1419 41.552 38.9153C42.132 38.8186 42.422 38.3352 42.422 37.8519C42.5187 37.2718 42.132 36.8851 41.552 36.6918ZM19.317 35.3384C18.8337 35.5317 18.6403 35.9184 18.6403 36.3051C18.6403 36.6918 18.8337 36.9818 19.317 37.1752C19.317 36.5951 19.317 36.0151 19.317 35.3384ZM51.316 37.1752C51.7994 36.9818 51.9927 36.6918 51.9927 36.2084C51.9927 35.8217 51.7994 35.5317 51.316 35.3384C51.316 36.0151 51.316 36.5951 51.316 37.1752Z" fill="white"/>
</symbol>

<symbol id="icon4" viewBox="0 0 70 70" fill="none" xmlns="http://www.w3.org/2000/svg">
<path d="M0 30C0 15.8579 0 8.7868 4.3934 4.3934C8.7868 0 15.8579 0 30 0H40C54.1421 0 61.2132 0 65.6066 4.3934C70 8.7868 70 15.8579 70 30V40C70 54.1421 70 61.2132 65.6066 65.6066C61.2132 70 54.1421 70 40 70H30C15.8579 70 8.7868 70 4.3934 65.6066C0 61.2132 0 54.1421 0 40V30Z" fill="currentColor"/>
<path d="M34.4629 58.9315C33.5727 58.7261 32.751 58.4522 32.2032 57.699C31.8609 57.2197 31.587 56.6034 31.3131 56.0556C31.1761 55.7817 31.1077 55.6448 30.8338 55.5763C29.0535 55.234 27.2731 54.6177 25.6298 53.796C23.0278 52.495 20.7682 50.7147 18.9194 48.4551C18.7139 48.1812 18.5085 48.1812 18.2346 48.2496C16.5228 48.8659 14.674 48.1127 13.7838 46.5378C12.8937 44.8944 13.2361 42.9087 14.7425 41.8131C15.0164 41.6077 15.0848 41.4023 14.9479 41.0599C13.7154 37.02 13.7154 32.9116 14.9479 28.8716C15.0164 28.5977 15.0164 28.3923 14.7425 28.1869C13.2361 27.0913 12.8252 25.1056 13.7154 23.4622C14.6055 21.8188 16.4543 21.1341 18.2346 21.7504C18.577 21.8873 18.7139 21.7504 18.9194 21.5449C20.7682 19.2853 23.0278 17.505 25.6298 16.204C27.2047 15.3823 28.9165 14.8345 30.6283 14.4922C31.0392 14.4237 31.3131 14.2867 31.45 13.7389C31.7239 12.0956 33.2988 11 35.0107 11C36.7225 11 38.2289 12.2325 38.5713 13.8759C38.6398 14.2867 38.8452 14.4237 39.1876 14.4922C41.995 15.0399 44.5285 16.1355 46.8566 17.7789C48.4315 18.8745 49.801 20.107 50.965 21.5449C51.1704 21.8188 51.3759 21.8873 51.7182 21.7504C53.3616 21.1341 55.2788 21.8873 56.169 23.3937C57.0592 25.0371 56.7168 27.0228 55.2789 28.1184C55.005 28.3238 54.9365 28.5292 55.005 28.8716C56.2375 32.9116 56.2375 37.02 55.005 41.0599C54.9365 41.3338 54.9365 41.5392 55.2104 41.7447C56.5798 42.7718 57.0592 44.689 56.3744 46.2639C55.6212 47.9073 53.8409 48.8659 52.1975 48.3866C51.4443 48.1812 51.102 48.3866 50.6226 48.9344C47.6098 52.3581 43.7753 54.5492 39.3245 55.5078C38.9137 55.5763 38.6398 55.7817 38.5713 56.2611C38.1604 57.699 37.2018 58.5207 35.8323 58.9315C35.6954 58.9315 35.6269 59 35.49 59C35.0791 58.9315 34.8052 58.9315 34.4629 58.9315ZM34.9422 24.4893C29.1904 24.4893 24.4657 29.214 24.4657 34.9658C24.4657 40.7176 29.1904 45.4422 34.9422 45.4422C40.694 45.4422 45.4186 40.7176 45.4186 34.9658C45.4186 29.214 40.694 24.4893 34.9422 24.4893ZM31.3816 15.8616C26.6569 16.7518 22.8224 19.0799 19.8095 22.7775C20.6312 23.8046 20.9051 24.9001 20.6312 26.1327C20.6312 26.2696 20.7682 26.4066 20.8366 26.475C21.7268 26.9544 22.6169 27.4337 23.5071 27.913C23.9179 28.1184 24.3288 28.3923 24.7396 28.5977C27.2047 24.9686 30.5599 22.9829 34.9422 22.9829C39.3245 22.9829 42.6112 25.0371 45.0763 28.5977C46.2403 27.9815 47.3359 27.3652 48.4315 26.7489C48.9793 26.475 49.3216 26.2011 49.1847 25.4479C48.9793 24.4208 49.3901 23.5307 50.0749 22.709C47.062 19.0114 43.2275 16.6833 38.5028 15.7932C38.0235 17.2311 37.0649 18.0528 35.6269 18.3951C35.6269 19.4223 35.6269 20.4494 35.6269 21.408C35.1476 21.408 34.6683 21.408 34.1205 21.408C34.1205 20.3809 34.1205 19.3538 34.1205 18.3951C32.8195 18.0528 31.8609 17.2311 31.3816 15.8616ZM19.8095 47.1541C22.8908 50.8516 26.6569 53.1797 31.3816 54.0699C31.8609 52.7004 32.8195 51.8103 34.2575 51.4679C34.2575 50.4408 34.2575 49.4137 34.2575 48.4551C34.8052 48.4551 35.2161 48.4551 35.7639 48.4551C35.7639 49.4822 35.7639 50.5093 35.7639 51.4679C37.2018 51.8103 38.092 52.7004 38.5713 54.0699C43.296 53.1113 47.1305 50.8516 50.1433 47.1541C49.2532 45.7846 49.1847 45.3738 49.3216 43.7989C49.3216 43.6619 49.2532 43.525 49.1847 43.4565C47.8837 42.7033 46.5142 42.0185 45.1448 41.2653C42.6797 44.8944 39.3245 46.8802 34.9422 46.8802C30.5599 46.8802 27.2047 44.826 24.7396 41.2653C23.3701 42.0185 22.0691 42.7033 20.7682 43.4565C20.6997 43.525 20.5627 43.6619 20.6312 43.7989C20.9051 45.0999 20.5627 46.1954 19.8095 47.1541ZM24.0549 39.9643C22.6169 36.6091 22.6169 33.2539 24.0549 29.8987C22.6169 29.1455 21.2475 28.3238 19.8095 27.5706C18.8509 28.5977 17.7553 29.0086 16.3858 28.8716C15.1533 32.9116 15.1533 36.883 16.3858 40.923C17.7553 40.786 18.8509 41.2653 19.8095 42.224C21.2475 41.5392 22.6169 40.786 24.0549 39.9643ZM50.0749 42.2924C50.965 41.4023 51.9921 40.8545 53.2931 40.923C53.3616 40.923 53.567 40.7175 53.6355 40.6491C54.3202 38.4579 54.5941 36.2668 54.4572 33.9387C54.3887 32.2268 54.1148 30.5835 53.4985 28.9401C52.1975 29.077 51.102 28.6662 50.2118 27.776C50.1433 27.7076 49.9379 27.7076 49.801 27.776C49.1847 28.1184 48.5684 28.4608 48.0206 28.7347C47.3359 29.1455 46.5827 29.4879 45.898 29.8987C47.3359 33.2539 47.3359 36.6091 45.898 39.9643C47.2674 40.786 48.6369 41.5392 50.0749 42.2924ZM34.9422 16.9572C36.1747 16.9572 37.2018 15.9301 37.2018 14.766C37.2018 13.5335 36.2432 12.5064 35.0107 12.5064C33.7781 12.5064 32.751 13.5335 32.751 14.766C32.6826 15.9301 33.7097 16.9572 34.9422 16.9572ZM19.1933 25.2425C19.1933 24.01 18.1662 22.9829 16.9336 22.9829C15.7011 22.9829 14.674 24.01 14.674 25.2425C14.674 26.475 15.7011 27.4337 16.9336 27.4337C18.2346 27.4337 19.1933 26.4066 19.1933 25.2425ZM55.1419 25.2425C55.1419 24.01 54.1148 22.9829 52.9507 22.9829C51.7182 22.9829 50.6911 23.9415 50.6911 25.174C50.6911 26.4066 51.7182 27.4337 52.9507 27.4337C54.1148 27.5021 55.1419 26.475 55.1419 25.2425ZM19.1933 44.689C19.1933 43.4565 18.1662 42.4294 16.9336 42.4294C15.7011 42.4294 14.674 43.4565 14.674 44.689C14.674 45.9215 15.7011 46.9486 16.9336 46.9486C18.2346 46.9486 19.1933 45.9215 19.1933 44.689ZM55.1419 44.689C55.1419 43.4565 54.1148 42.4294 52.9507 42.4294C51.7182 42.4294 50.6911 43.388 50.6911 44.6205C50.6911 45.8531 51.7182 46.8802 52.9507 46.8802C54.1148 46.9486 55.1419 45.9215 55.1419 44.689ZM34.9422 52.9743C33.7097 52.9743 32.6826 54.0014 32.6826 55.1655C32.6826 56.398 33.7097 57.4251 34.9422 57.4251C36.1747 57.4251 37.2018 56.398 37.2018 55.1655C37.2018 53.933 36.1747 52.9743 34.9422 52.9743Z" fill="white"/>
<path d="M32.545 34.0748C31.1071 32.7738 30.9017 31.1989 31.3125 29.487C31.7233 27.7067 33.5037 26.5427 35.2155 26.6796C37.2012 26.885 38.5022 28.3915 38.6392 30.3772C38.7077 31.7467 38.4338 32.9792 37.2697 34.0063C37.4751 34.1432 37.6806 34.3487 37.886 34.4856C38.9816 35.1703 40.1456 35.8551 41.2412 36.4713C41.5151 36.6083 41.652 36.8137 41.5835 37.1561C41.5835 37.8408 41.5835 38.5255 41.5835 39.1418C41.652 40.032 41.1727 40.6482 40.4195 40.9221C39.6663 41.196 38.8446 41.4014 38.0914 41.4699C35.6263 41.6753 33.0928 41.7438 30.6278 41.333C30.2169 41.2645 29.8061 41.1275 29.3952 40.9906C28.5736 40.6482 28.0942 40.032 28.1627 39.1418C28.1627 38.4571 28.1627 37.7723 28.1627 37.0876C28.1627 36.8137 28.2312 36.6768 28.4366 36.5398C29.6007 35.8551 30.6962 35.1703 31.8603 34.4856C32.1342 34.4171 32.3396 34.2802 32.545 34.0748ZM34.5308 40.2374C35.9002 40.1689 36.8589 40.1689 37.8175 40.1004C38.4338 40.032 39.1185 39.895 39.7348 39.7581C40.0771 39.6896 40.1456 39.4842 40.1456 39.1418C40.351 38.0462 39.9402 37.293 38.8446 36.8822C38.7077 36.8137 38.5707 36.7452 38.5022 36.6768C37.6806 36.129 36.8589 35.5127 36.0372 34.9649C35.9687 34.8964 35.7633 34.8965 35.6263 34.8965C35.0786 34.8965 34.5992 34.8965 34.0515 34.8965C33.9145 34.8965 33.7091 34.8964 33.6406 34.9649C32.7505 35.9236 31.5864 36.4713 30.4908 37.0876C29.8061 37.4984 29.4637 37.9093 29.6007 38.731C29.6691 39.6896 29.6691 39.6896 30.5593 39.9635C30.6278 39.9635 30.6278 39.9635 30.6962 39.9635C32.2027 40.032 33.5721 40.1689 34.5308 40.2374ZM32.682 30.788C32.682 30.9935 32.682 31.1989 32.682 31.4043C32.7504 32.5683 33.7091 33.39 34.8047 33.4585C35.9002 33.527 36.9273 32.7738 37.0643 31.6782C37.1328 31.0619 37.1328 30.4457 36.9958 29.8979C36.6535 28.5284 35.0101 27.8437 33.7776 28.5284C33.0243 29.0077 32.682 29.8294 32.682 30.788Z" fill="white"/>
<path d="M35.6958 15.4497C35.2164 15.4497 34.7371 15.4497 34.2578 15.4497C34.2578 14.9703 34.2578 14.491 34.2578 14.0117C34.7371 14.0117 35.2164 14.0117 35.6958 14.0117C35.6958 14.491 35.6958 14.9703 35.6958 15.4497Z" fill="white"/>
<path d="M17.686 25.9267C17.2067 25.9267 16.7274 25.9267 16.248 25.9267C16.248 25.4474 16.248 24.9681 16.248 24.4888C16.7274 24.4888 17.2067 24.4888 17.686 24.4888C17.686 24.9681 17.686 25.4474 17.686 25.9267Z" fill="white"/>
<path d="M53.6352 24.4888C53.6352 24.9681 53.6352 25.4474 53.6352 25.9267C53.1559 25.9267 52.6766 25.9267 52.1973 25.9267C52.1973 25.4474 52.1973 24.9681 52.1973 24.4888C52.6766 24.4888 53.1559 24.4888 53.6352 24.4888Z" fill="white"/>
<path d="M17.686 45.4417C17.2067 45.4417 16.7274 45.4417 16.248 45.4417C16.248 44.9624 16.248 44.4831 16.248 44.0038C16.7274 44.0038 17.2067 44.0038 17.686 44.0038C17.686 44.4831 17.686 44.9624 17.686 45.4417Z" fill="white"/>
<path d="M53.6352 44.0038C53.6352 44.4831 53.6352 44.9624 53.6352 45.4417C53.1559 45.4417 52.6766 45.4417 52.1973 45.4417C52.1973 44.9624 52.1973 44.4831 52.1973 44.0038C52.6766 44.0038 53.1559 44.0038 53.6352 44.0038Z" fill="white"/>
<path d="M35.6958 54.4807C35.6958 54.96 35.6958 55.4393 35.6958 55.9187C35.2164 55.9187 34.7371 55.9187 34.2578 55.9187C34.2578 55.4393 34.2578 54.96 34.2578 54.4807C34.7371 54.4807 35.148 54.4807 35.6958 54.4807Z" fill="white"/>
</symbol>

<symbol id="phone" viewBox="0 0 24 24" fill="none" xmlns="http://www.w3.org/2000/svg">
<path d="M15.1225 16.327L16.7379 14.7116C16.9554 14.4967 17.2307 14.3496 17.5303 14.2882C17.8298 14.2267 18.1408 14.2536 18.4254 14.3654L20.3941 15.1515C20.6817 15.2682 20.9283 15.4675 21.1029 15.7242C21.2774 15.9808 21.3721 16.2834 21.3749 16.5938V20.1996C21.3732 20.4107 21.3288 20.6194 21.2444 20.8129C21.16 21.0064 21.0373 21.1809 20.8837 21.3257C20.73 21.4706 20.5487 21.5829 20.3505 21.6558C20.1524 21.7287 19.9415 21.7608 19.7307 21.7501C5.93494 20.8919 3.15128 9.20918 2.62484 4.73801C2.6004 4.51845 2.62273 4.2962 2.69035 4.08588C2.75798 3.87556 2.86937 3.68195 3.0172 3.51777C3.16502 3.3536 3.34593 3.22258 3.54803 3.13335C3.75013 3.04411 3.96883 2.99867 4.18975 3.00003H7.67293C7.98375 3.00095 8.2872 3.09484 8.54423 3.26962C8.80126 3.4444 9.00012 3.69208 9.11524 3.9808L9.9013 5.94956C10.0169 6.23302 10.0464 6.54425 9.98607 6.84438C9.92579 7.1445 9.77842 7.42021 9.56236 7.63706L7.94697 9.25245C7.94697 9.25245 8.87726 15.5481 15.1225 16.327Z" fill="currentColor"/>
</symbol>

<symbol id="spent" viewBox="0 0 48 48" fill="none" xmlns="http://www.w3.org/2000/svg">
<path d="M0 43.575C0 36.9 0 30.3 0 23.625C0.3 22.65 1.05 22.125 1.875 21.675C2.175 21.525 2.475 21.375 2.775 21.3C3.15 21.225 3.225 21 3.225 20.7C3.225 15.975 3.225 11.325 3.225 6.6C3.225 3.225 5.625 0.75 8.85 0.75C19.95 0.75 31.125 0.75 42.225 0.75C43.8 0.75 44.775 1.725 44.775 3.375C44.775 5.55 44.775 7.725 44.775 9.9C44.775 10.05 44.775 10.275 44.775 10.425C47.025 11.175 48 12.45 48 14.775C48 22.5 48 30.3 48 38.025C48 38.475 48 38.925 47.85 39.375C47.4 41.175 45.825 42.375 43.8 42.375C37.125 42.375 30.525 42.375 23.85 42.375C23.625 42.375 23.475 42.375 23.25 42.375C23.25 42.45 23.25 42.45 23.25 42.45C23.25 42.525 23.25 42.6 23.25 42.675C23.325 43.8 22.8 44.625 21.825 45.15C21 45.6 20.1 45.975 19.275 46.2C16.875 46.875 14.325 47.1 11.85 47.1C8.925 47.1 6 46.875 3.15 45.9C1.8 45.525 0.525 45 0 43.575ZM46.425 22.35C46.425 22.125 46.425 21.975 46.425 21.825C46.425 19.425 46.425 17.025 46.425 14.625C46.425 12.9 45.45 11.925 43.725 11.925C32.175 11.925 20.55 11.925 9 11.925C7.5 11.925 6.15 11.475 5.025 10.5C4.95 10.425 4.875 10.425 4.8 10.35C4.8 13.8 4.8 17.175 4.8 20.55C4.95 20.55 5.1 20.55 5.25 20.475C9.225 19.65 13.2 19.65 17.25 20.325C18.825 20.55 20.4 21 21.825 21.825C22.725 22.5 23.25 23.25 23.25 24.45C23.175 29.7 23.25 34.875 23.25 40.125C23.25 40.35 23.25 40.5 23.25 40.725C23.4 40.725 23.55 40.725 23.7 40.725C30.45 40.725 37.125 40.725 43.875 40.725C45.45 40.725 46.5 39.75 46.5 38.1C46.5 35.7 46.5 33.225 46.5 30.825C46.5 30.675 46.5 30.525 46.5 30.375C45.225 30.375 43.95 30.375 42.75 30.375C42.15 30.375 41.55 30.3 40.95 30.075C39.225 29.4 38.25 27.45 38.625 25.65C39 23.775 40.575 22.425 42.45 22.425C43.65 22.35 45 22.35 46.425 22.35ZM43.2 7.125C42.975 7.125 42.75 7.125 42.525 7.125C30.9 7.125 19.2 7.125 7.575 7.125C6.75 7.125 6.375 6.825 6.375 6.3C6.375 5.775 6.75 5.475 7.575 5.475C19.2 5.475 30.9 5.475 42.525 5.475C42.75 5.475 42.9 5.475 43.2 5.475C43.2 4.725 43.2 4.05 43.2 3.45C43.2 2.55 42.975 2.325 42.075 2.325C31.05 2.325 20.1 2.325 9.075 2.325C8.7 2.325 8.325 2.325 8.025 2.4C6 2.85 4.65 4.725 4.8 6.6C5.025 8.7 6.675 10.275 8.775 10.275C20.1 10.275 31.425 10.275 42.825 10.275C42.975 10.275 43.05 10.275 43.2 10.2C43.2 9.3 43.2 8.25 43.2 7.125ZM11.625 21.525C9.375 21.525 7.125 21.675 4.95 22.275C3.975 22.575 3 22.95 2.1 23.4C1.425 23.775 1.425 24.15 2.1 24.525C2.625 24.825 3.15 25.05 3.675 25.275C5.4 25.875 7.125 26.1 8.925 26.25C12.075 26.475 15.225 26.4 18.375 25.65C19.275 25.425 20.175 25.05 21.075 24.6C21.825 24.225 21.825 23.775 21.075 23.325C20.625 23.025 20.1 22.8 19.575 22.65C16.95 21.75 14.325 21.6 11.625 21.525ZM1.575 26.175C1.575 26.85 1.65 27.525 1.575 28.2C1.5 28.8 1.8 29.25 2.325 29.475C3.45 29.85 4.5 30.375 5.7 30.6C8.85 31.275 12 31.275 15.225 30.975C17.025 30.825 18.75 30.45 20.475 29.775C21.3 29.4 21.825 28.95 21.675 27.9C21.6 27.375 21.675 26.775 21.675 26.25C15.15 28.575 7.875 28.575 1.575 26.175ZM1.575 35.775C1.575 36.525 1.65 37.2 1.575 37.875C1.575 38.475 1.8 38.85 2.25 39C3.075 39.375 3.9 39.75 4.8 39.975C9 41.025 13.275 40.95 17.55 40.2C18.75 39.975 19.95 39.675 21 39C21.225 38.85 21.6 38.625 21.6 38.325C21.675 37.5 21.6 36.6 21.6 35.7C18.375 37.2 15 37.5 11.625 37.5C8.175 37.575 4.8 37.275 1.575 35.775ZM1.575 40.575C1.575 41.325 1.575 42 1.575 42.75C1.575 43.275 1.725 43.65 2.175 43.875C3 44.25 3.75 44.625 4.575 44.85C8.85 45.9 13.2 45.9 17.55 45.075C18.675 44.85 19.8 44.325 20.925 43.95C21.15 43.875 21.525 43.575 21.525 43.35C21.6 42.525 21.525 41.625 21.525 40.725C15.225 42.975 7.875 42.975 1.575 40.575ZM21.6 30.975C18.375 32.475 15 32.775 11.625 32.775C8.25 32.775 4.8 32.475 1.65 30.975C1.65 31.8 1.65 32.55 1.65 33.3C1.65 33.675 1.8 33.975 2.1 34.125C2.7 34.425 3.3 34.725 3.9 34.95C5.85 35.625 7.95 35.85 9.975 35.925C12.825 36.075 15.675 35.925 18.45 35.175C19.35 34.95 20.25 34.5 21.075 34.125C21.3 34.05 21.6 33.675 21.6 33.45C21.6 32.7 21.6 31.875 21.6 30.975ZM46.35 28.725C46.35 27.075 46.35 25.5 46.35 23.925C44.925 23.925 43.575 23.925 42.225 23.925C41.025 24 40.05 25.05 40.05 26.25C40.05 27.45 40.95 28.575 42.15 28.65C43.5 28.8 44.925 28.725 46.35 28.725Z" fill="currentColor"/>
<path d="M38.0253 15.1505C36.0753 15.1505 34.1253 15.1505 32.2503 15.1505C31.9503 15.1505 31.6503 15.0005 31.4253 14.8505C31.2753 14.7005 31.2003 14.2505 31.3503 14.1005C31.5003 13.8755 31.8003 13.6505 32.1003 13.6505C32.7003 13.5755 33.3003 13.6505 33.9003 13.6505C37.2003 13.6505 40.4253 13.6505 43.7253 13.6505C43.8753 13.6505 43.9503 13.6505 44.1003 13.6505C44.5503 13.7255 44.9253 14.0255 44.9253 14.4755C44.9253 14.9255 44.5503 15.2255 44.1003 15.2255C42.6753 15.2255 41.3253 15.2255 39.9003 15.2255C39.2253 15.1505 38.6253 15.1505 38.0253 15.1505Z" fill="currentColor"/>
<path d="M27.9744 15.1512C27.6744 15.1512 27.3744 15.1512 27.1494 15.1512C26.6994 15.1512 26.3994 14.8512 26.3994 14.4012C26.3994 13.9512 26.6994 13.5762 27.1494 13.5762C27.7494 13.5762 28.2744 13.5762 28.8744 13.5762C29.3244 13.5762 29.6244 13.9512 29.6244 14.4012C29.6244 14.8512 29.2494 15.1512 28.7994 15.1512C28.4994 15.1512 28.2744 15.1512 27.9744 15.1512Z" fill="currentColor"/>
<path d="M42.3738 27.15C41.9238 27.15 41.5488 26.775 41.5488 26.325C41.5488 25.875 41.9238 25.5 42.3738 25.5C42.8238 25.5 43.1238 25.875 43.1238 26.25C43.1988 26.775 42.8238 27.15 42.3738 27.15Z" fill="currentColor"/>
</symbol>

</defs>
</svg>